PathFileType	4	(X/Y/Z)	C:/Users/beibeiliu/ov580/test_trc/User2\sequence.2_training_dense_left.trc
DataRate	CameraRate	NumFrames	NumMarkers	Units	OrigDataRate	OrigDataStartFrame	OrigNumFrames
120	120	11	19	mm	120	1	78
Frame#	Time	ThumbCMC			ThumbMCP			ThumbIP			ThumbTip			IndexMCP			IndexPIP			IndexTip			MiddleMCP			MiddlePIP			MiddleTip			RingMCP			RingPIP			RingTip			PinkyMCP			PinkyPIP			PinkyTip			BackHand1			BackHand2			BackHand3	
		X0	Y0	Z0	X1	Y1	Z1	X2	Y2	Z2	X3	Y3	Z3	X4	Y4	Z4	X5	Y5	Z5	X6	Y6	Z6	X7	Y7	Z7	X8	Y8	Z8	X9	Y9	Z9	X10	Y10	Z10	X11	Y11	Z11	X12	Y12	Z12	X13	Y13	Z13	X14	Y14	Z14	X15	Y15	Z15	X16	Y16	Z16	X17	Y17	Z17	X18	Y18	Z18	
0	0	-126.84	-46.5043	5.94455	-107.628	-54.2743	-14.3682	-81.8923	-57.0221	-37.9122	-63.6966	-62.6549	-56.2164	-145.809	-33.5491	-75.7563	-138.05	-33.609	-101.895	-132.982	-31.7817	-134.391	-172.786	-31.5016	-83.3855	-175.268	-30.9592	-115.149	-179.092	-32.7639	-146.983	-198.966	-39.9058	-78.6235	-205.714	-40.7385	-100.697	-212.286	-42.8042	-129.168	-223.724	-53.8983	-57.8828	-233.393	-56.4877	-76.5653	-243.448	-50.0732	-99.2005	-194.754	-31.8061	-23.7002	-194.441	-26.4016	13.9701	-160.423	-24.317	-8.20292	
1	0.00833333	-128.935	-47.1157	3.48458	-107.132	-53.0049	-15.5594	-87.0557	-58.1357	-39.6563	-65.151	-63.5933	-57.0437	-146.572	-32.5541	-77.5663	-139.647	-31.5058	-106.33	-135.094	-31.1784	-135.756	-172.632	-30.4843	-86.1832	-174.686	-30.2597	-113.004	-179.595	-32.0949	-147.443	-203.599	-39.286	-76.1685	-205.299	-40.3714	-101.683	-213.079	-41.326	-134.651	-220.517	-53.7926	-55.2784	-236.64	-54.3791	-81.0046	-245.987	-48.6245	-96.6123	-197.404	-32.9308	-20.085	-194.3	-25.436	10.9524	-160.228	-25.0643	-10.0912	
2	0.0166667	-129.255	-47.9171	5.42071	-109.319	-54.1461	-13.1644	-82.8712	-57.6961	-41.5678	-68.3594	-64.4643	-53.9793	-140.775	-31.355	-80.1152	-139.474	-30.873	-103.989	-130.921	-29.6078	-130.864	-174.706	-29.2623	-82.7002	-174.527	-29.1675	-114.339	-175.759	-30.6939	-145.935	-197.931	-37.4723	-74.8877	-206.002	-38.83	-106.27	-212.917	-40.7	-134.039	-222.218	-51.575	-56.3262	-235.46	-53.7206	-79.6933	-244.229	-49.1412	-99.3698	-198.123	-31.7877	-20.6476	-193.716	-26.9557	10.7494	-161.769	-25.1916	-6.99909	
3	0.025	-126.026	-46.0554	0.876978	-109.061	-53.1937	-16.239	-84.5388	-57.3596	-40.0388	-67.4592	-63.865	-52.6401	-143.303	-29.5296	-79.5995	-134.29	-27.1375	-106.475	-135.538	-27.9967	-130.736	-172.084	-27.5357	-81.2896	-174.381	-26.713	-116.658	-177.732	-29.4212	-147.178	-197.679	-35.2269	-77.7679	-206.007	-36.7643	-105.344	-208.749	-38.6965	-130.374	-217.092	-50.4202	-57.0251	-230.454	-50.0548	-81.8225	-243.07	-45.4224	-100.241	-196.381	-31.8133	-23.7213	-197.63	-26.5024	9.73945	-160.387	-23.9614	-9.93338	
4	0.0333333	-130.327	-46.6687	3.87566	-106.855	-51.3713	-18.0172	-81.9447	-55.9279	-39.0287	-64.9609	-62.1909	-55.5707	-140.965	-27.2546	-76.0334	-136.155	-25.3247	-102.287	-130.325	-25.6567	-130.501	-170.022	-23.5016	-86.896	-171.578	-25.1198	-119.509	-175.013	-27.7822	-146.532	-202.037	-35.2049	-76.9565	-204.58	-34.9165	-107.938	-210.248	-40.1348	-135.9	-222.924	-49.3809	-58.5796	-228.668	-49.4086	-82.7099	-242.435	-46.1159	-103.927	-197.4	-29.4635	-23.2579	-192.154	-25.1367	7.9967	-161.235	-24.2953	-10.1968	
5	0.0416667	-129.401	-45.9882	-0.427032	-107.263	-51.2884	-17.3965	-84.0702	-56.1517	-44.12	-66.3792	-63.5916	-60.1333	-140.483	-26.3829	-75.0654	-138.467	-24.6572	-107.396	-131.083	-26.5548	-131.673	-174.481	-23.352	-85.9411	-172.956	-23.0734	-117.201	-178.404	-29.9995	-148.59	-202.535	-33.9298	-77.2298	-207.119	-35.3735	-108.285	-209.849	-42.6895	-134.112	-220.57	-47.0539	-58.9753	-228.424	-48.9247	-82.8135	-240.055	-53.461	-108.169	-194.103	-29.5601	-19.845	-194.6	-26.909	10.2635	-158.13	-24.004	-8.75001	
6	0.05	-126.79	-45.7568	0.835578	-104.089	-52.8483	-17.4222	-86.6035	-61.8739	-40.8456	-74.1038	-68.9091	-63.4002	-144.002	-23.3998	-79.5623	-135.937	-23.2886	-103.045	-134.451	-29.3518	-132.856	-175.341	-20.9668	-85.3073	-172.72	-22.0706	-115.252	-175.22	-36.5848	-150.268	-196.583	-31.5315	-75.1338	-203.395	-34.9879	-106.629	-200.643	-51.0722	-137.981	-221.642	-47.0347	-59.6228	-228.889	-51.9762	-91.1551	-230.63	-64.5552	-113.973	-192.983	-31.4359	-19.0976	-196.515	-27.8823	12.6707	-161.774	-22.5369	-6.03323	
7	0.0583333	-128.319	-45.9019	6.43713	-106.543	-56.3722	-15.183	-88.1625	-65.3502	-47.1987	-82.8126	-75.8109	-70.0796	-144.597	-18.1426	-75.7609	-137.639	-21.0006	-107.492	-139.221	-35.5902	-131.474	-173.727	-17.2528	-83.5402	-173.394	-23.6681	-116.004	-167.711	-55.0559	-142.239	-195.015	-28.0099	-76.2956	-201.014	-38.0614	-107.925	-192.476	-64.5148	-126.028	-219.466	-44.3157	-64.7833	-219.589	-54.8669	-92.2409	-209.702	-81.4967	-110.863	-199.344	-29.5211	-18.1737	-198.018	-27.0004	11.6971	-160.131	-19.4057	-4.8234	
8	0.0666667	-132.091	-47.6075	3.19164	-113.561	-59.929	-21.0522	-103.118	-70.7563	-50.5568	-105.154	-79.7876	-79.2285	-148.705	-16.981	-73.1458	-145.325	-25.7335	-108.41	-140.782	-55.4596	-124.097	-174.604	-17.9776	-80.9701	-175.042	-36.9252	-116.596	-166.632	-73.5227	-118.048	-196.326	-29.2838	-80.1591	-195.255	-47.1893	-107.089	-179.289	-81.1711	-104.365	-217.274	-45.9333	-64.4153	-210.002	-61.792	-92.948	-194.941	-92.3823	-94.3319	-199.512	-27.9533	-19.6673	-202.183	-28.0512	14.9645	-165.005	-20.9067	-2.53334	
9	0.075	-139.585	-47.8087	2.40476	-116.862	-61.4154	-25.3285	-108.375	-72.0549	-55.5844	-120.535	-80.4072	-81.0176	-152.131	-15.9158	-76.9137	-152.568	-28.1657	-105.774	-148.795	-63.9819	-112.002	-174.741	-19.9534	-86.6561	-170.078	-45.494	-112.667	-164.836	-80.3317	-96.0107	-193.577	-31.5356	-85.4768	-193.54	-56.2195	-105.275	-179.461	-84.8703	-84.6428	-213.251	-45.4713	-68.2485	-204.252	-71.132	-92.2211	-189.533	-93.8702	-77.1088	-206.981	-25.4797	-21.1257	-207.087	-26.0781	9.46865	-169.142	-18.8297	-2.03428	
10	0.0833333	-141.428	-43.5098	-2.92827	-122.887	-56.9575	-28.9254	-116.039	-67.3334	-62.5266	-126.869	-74.0826	-89.961	-159.619	-14.8106	-81.6777	-154.299	-31.503	-107.52	-152.453	-68.6599	-102.693	-179.448	-21.172	-91.4341	-173.085	-49.2215	-109.662	-170.684	-80.1085	-84.1175	-203.055	-35.0402	-87.3632	-193.901	-61.3087	-102.804	-180.323	-82.9916	-72.9158	-216.044	-45.8768	-72.953	-203.338	-74.104	-90.3791	-190.861	-91.0087	-66.8444	-211.795	-23.1321	-23.5021	-211.015	-26.1876	5.99558	-176.414	-15.5209	-5.18264	
